<svg width="512" height="512" xmlns="http://www.w3.org/2000/svg">
  <defs>
    <linearGradient id="bg" x1="0%" y1="0%" x2="100%" y2="100%">
      <stop offset="0%" style="stop-color:#1db954;stop-opacity:1" />
      <stop offset="100%" style="stop-color:#1ed760;stop-opacity:1" />
    </linearGradient>
  </defs>
  
  <!-- Background -->
  <rect width="512" height="512" fill="url(#bg)" rx="80"/>
  
  <!-- Radio waves -->
  <circle cx="256" cy="200" r="60" fill="none" stroke="white" stroke-width="8" opacity="0.3"/>
  <circle cx="256" cy="200" r="90" fill="none" stroke="white" stroke-width="6" opacity="0.2"/>
  <circle cx="256" cy="200" r="120" fill="none" stroke="white" stroke-width="4" opacity="0.1"/>
  
  <!-- Radio device body -->
  <rect x="180" y="280" width="152" height="100" rx="20" fill="white" opacity="0.9"/>
  <rect x="190" y="290" width="132" height="80" rx="15" fill="#1db954"/>
  
  <!-- Speaker grill -->
  <rect x="200" y="300" width="112" height="6" rx="3" fill="white" opacity="0.6"/>
  <rect x="200" y="315" width="112" height="6" rx="3" fill="white" opacity="0.6"/>
  <rect x="200" y="330" width="112" height="6" rx="3" fill="white" opacity="0.6"/>
  <rect x="200" y="345" width="112" height="6" rx="3" fill="white" opacity="0.6"/>
  
  <!-- Antenna -->
  <rect x="253" y="250" width="6" height="30" fill="white" opacity="0.8"/>
  <circle cx="256" cy="245" r="4" fill="white"/>
  
  <!-- Music note -->
  <circle cx="256" cy="420" r="40" fill="white" opacity="0.1"/>
  <text x="256" y="435" text-anchor="middle" fill="white" font-family="Arial, sans-serif" font-size="32" font-weight="bold">♪</text>
</svg> 